<svg width="25" height="26" viewBox="0 0 25 26" fill="none" xmlns="http://www.w3.org/2000/svg">
<path opacity="0.4" d="M21.875 19.9894V18.2749C21.875 17.423 21.3564 16.657 20.5654 16.3406L18.4465 15.493C17.4405 15.0906 16.2939 15.5265 15.8094 16.4957L15.625 16.8644C15.625 16.8644 13.0208 16.3436 10.9375 14.2603C8.85417 12.1769 8.33333 9.57275 8.33333 9.57275L8.7021 9.38837C9.67123 8.90381 10.1071 7.75727 9.70473 6.75125L8.85717 4.63236C8.54079 3.8414 7.77473 3.32275 6.92285 3.32275H5.20833C4.05774 3.32275 3.125 4.25549 3.125 5.40609C3.125 14.6108 10.5869 22.0728 19.7917 22.0728C20.9423 22.0728 21.875 21.14 21.875 19.9894Z" fill="#43506E"/>
</svg>
