<svg width="51" height="51" viewBox="0 0 51 51" fill="none" xmlns="http://www.w3.org/2000/svg">
<rect x="0.164062" y="0.272949" width="50" height="50" rx="25" fill="#B1E5FC" fill-opacity="0.3"/>
<path d="M29.1641 33.2729L30.9169 34.6752C31.3348 35.0095 31.9418 34.9556 32.2942 34.5528L35.1641 31.2729" stroke="#143543" stroke-width="1.5" stroke-linecap="round" stroke-linejoin="round"/>
<path d="M35.1641 27.2729V19.2729H19.1641C16.9549 19.2729 15.1641 21.0638 15.1641 23.2729V31.2729C15.1641 33.4821 16.9549 35.2729 19.1641 35.2729H26.1641" stroke="#143543" stroke-width="1.5" stroke-linecap="round" stroke-linejoin="round"/>
<path d="M35.1641 19.2729C35.1641 17.0638 33.3732 15.2729 31.1641 15.2729H25.1641C22.9549 15.2729 21.1641 17.0638 21.1641 19.2729V19.2729H35.1641V19.2729Z" stroke="#143543" stroke-width="1.5" stroke-linejoin="round"/>
<path d="M15.1641 25.2729L15.1641 29.2729L19.1641 29.2729C20.2686 29.2729 21.1641 28.3775 21.1641 27.2729V27.2729C21.1641 26.1684 20.2686 25.2729 19.1641 25.2729L15.1641 25.2729Z" stroke="#143543" stroke-width="1.5" stroke-linejoin="round"/>
</svg>
