<svg width="31" height="31" viewBox="0 0 31 31" fill="none" xmlns="http://www.w3.org/2000/svg">
<path d="M20.7227 5.62207H21.9727C24.7341 5.62207 26.9727 7.86065 26.9727 10.6221V23.1221C26.9727 25.8835 24.7341 28.1221 21.9727 28.1221H9.47266C6.71123 28.1221 4.47266 25.8835 4.47266 23.1221V10.6221C4.47266 7.86065 6.71123 5.62207 9.47266 5.62207H10.7227M20.7227 5.62207C20.7227 7.00278 19.6034 8.12207 18.2227 8.12207H13.2227C11.8419 8.12207 10.7227 7.00278 10.7227 5.62207M20.7227 5.62207C20.7227 4.24136 19.6034 3.12207 18.2227 3.12207H13.2227C11.8419 3.12207 10.7227 4.24136 10.7227 5.62207M10.7227 13.1221H20.7227M10.7227 18.1221H20.7227M10.7227 23.1221H15.7227" stroke="#43506E" stroke-width="1.5" stroke-linecap="round" stroke-linejoin="round"/>
</svg>
