<svg width="19" height="17" viewBox="0 0 19 17" fill="none" xmlns="http://www.w3.org/2000/svg">
<path d="M15.888 15.5526V8.8859C15.888 8.44388 15.7124 8.01995 15.3999 7.70739C15.0873 7.39483 14.6634 7.21924 14.2214 7.21924H4.22135C3.77933 7.21924 3.3554 7.39483 3.04284 7.70739C2.73028 8.01995 2.55469 8.44388 2.55469 8.8859V15.5526" stroke="white" stroke-width="1.5" stroke-linecap="round" stroke-linejoin="round"/>
<path d="M2.55469 11.3861C2.55469 11.3861 2.97135 10.5527 4.22135 10.5527C5.47135 10.5527 6.30469 12.2194 7.55469 12.2194C8.80469 12.2194 9.63802 10.5527 10.888 10.5527C12.138 10.5527 12.9714 12.2194 14.2214 12.2194C15.4714 12.2194 15.888 11.3861 15.888 11.3861" stroke="white" stroke-width="1.5" stroke-linecap="round" stroke-linejoin="round"/>
<path d="M0.888672 15.5527H17.5553" stroke="white" stroke-width="1.5" stroke-linecap="round" stroke-linejoin="round"/>
<path d="M5.05469 4.71924V6.3859" stroke="white" stroke-width="1.5" stroke-linecap="round" stroke-linejoin="round"/>
<path d="M9.22266 4.71924V6.3859" stroke="white" stroke-width="1.5" stroke-linecap="round" stroke-linejoin="round"/>
<path d="M13.3887 4.71924V6.3859" stroke="white" stroke-width="1.5" stroke-linecap="round" stroke-linejoin="round"/>
<path d="M5.05469 1.38574H5.06302" stroke="white" stroke-width="1.5" stroke-linecap="round" stroke-linejoin="round"/>
<path d="M9.22266 1.38574H9.23099" stroke="white" stroke-width="1.5" stroke-linecap="round" stroke-linejoin="round"/>
<path d="M13.3887 1.38574H13.397" stroke="white" stroke-width="1.5" stroke-linecap="round" stroke-linejoin="round"/>
</svg>
