<svg width="25" height="25" viewBox="0 0 25 25" fill="none" xmlns="http://www.w3.org/2000/svg">
<path d="M16.6817 3.56925L16.2227 4.02588L15.7636 3.56925C14.4961 2.3083 12.4409 2.3083 11.1733 3.56925C9.90576 4.8302 9.90576 6.87461 11.1733 8.13557L15.3046 12.2452C15.8116 12.7496 16.6337 12.7496 17.1407 12.2452L21.272 8.13557C22.5396 6.87461 22.5395 4.8302 21.272 3.56925C20.0044 2.3083 17.9493 2.3083 16.6817 3.56925Z" stroke="#43506E" stroke-width="1.5" stroke-linejoin="round"/>
<path d="M2.22266 10.6235H4.22266L10.4849 13.3633C11.4467 13.7841 11.889 14.902 11.4755 15.867V15.867C11.0597 16.8371 9.93621 17.2865 8.96608 16.8707L7.22266 16.1235" stroke="#43506E" stroke-width="1.5" stroke-linecap="round" stroke-linejoin="round"/>
<path d="M2.55807 18.9527C2.18758 18.7675 1.73708 18.9176 1.55184 19.2881C1.36659 19.6586 1.51676 20.1091 1.88725 20.2944L2.55807 18.9527ZM11.5581 15.9527L10.8872 15.6173L10.2164 16.9589L10.8872 17.2944L11.5581 15.9527ZM19.4727 20.6235C19.4727 21.0377 19.8084 21.3735 20.2227 21.3735C20.6369 21.3735 20.9727 21.0377 20.9727 20.6235H19.4727ZM13.9558 17.9901L13.6204 18.6609L13.9558 17.9901ZM16.6391 19.3735H18.2227V17.8735H16.6391V19.3735ZM18.2227 21.8735H10.1112V23.3735H18.2227V21.8735ZM6.8689 21.1081L2.55807 18.9527L1.88725 20.2944L6.19808 22.4498L6.8689 21.1081ZM14.2912 17.3193L11.5581 15.9527L10.8872 17.2944L13.6204 18.6609L14.2912 17.3193ZM10.1112 21.8735C8.98567 21.8735 7.8756 21.6115 6.8689 21.1081L6.19808 22.4498C7.41307 23.0573 8.75281 23.3735 10.1112 23.3735V21.8735ZM19.4727 20.6235C19.4727 21.3139 18.913 21.8735 18.2227 21.8735V23.3735C19.7414 23.3735 20.9727 22.1423 20.9727 20.6235H19.4727ZM18.2227 19.3735C18.913 19.3735 19.4727 19.9332 19.4727 20.6235H20.9727C20.9727 19.1048 19.7414 17.8735 18.2227 17.8735V19.3735ZM16.6391 17.8735C15.824 17.8735 15.0202 17.6838 14.2912 17.3193L13.6204 18.6609C14.5576 19.1296 15.5912 19.3735 16.6391 19.3735V17.8735Z" fill="#43506E"/>
</svg>
