<svg width="25" height="26" viewBox="0 0 25 26" fill="none" xmlns="http://www.w3.org/2000/svg">
<path fill-rule="evenodd" clip-rule="evenodd" d="M12.5 17.9061C14.5833 17.9061 18.75 13.0245 18.75 9.57275C18.75 6.12097 15.9518 3.32275 12.5 3.32275C9.04822 3.32275 6.25 6.12097 6.25 9.57275C6.25 13.0245 10.4167 17.9061 12.5 17.9061ZM12.5 11.6561C13.6506 11.6561 14.5833 10.7233 14.5833 9.57275C14.5833 8.42216 13.6506 7.48942 12.5 7.48942C11.3494 7.48942 10.4167 8.42216 10.4167 9.57275C10.4167 10.7233 11.3494 11.6561 12.5 11.6561Z" fill="#43506E"/>
<path opacity="0.4" fill-rule="evenodd" clip-rule="evenodd" d="M7.29465 15.9095C6.42367 16.094 5.63041 16.566 5.05031 17.2621L3.775 18.7925C2.68945 20.0951 3.61576 22.0728 5.31144 22.0728H19.6879C21.3836 22.0728 22.3099 20.0951 21.2244 18.7925L19.9491 17.2621C19.369 16.566 18.5757 16.094 17.7047 15.9096C17.6809 15.9403 17.657 15.9708 17.633 16.0012C16.9166 16.9101 16.1058 17.731 15.2914 18.3405C14.5385 18.9039 13.5436 19.4687 12.4997 19.4687C11.4557 19.4687 10.4609 18.9039 9.70803 18.3405C8.89361 17.731 8.08276 16.9101 7.36633 16.0012C7.34241 15.9708 7.31852 15.9403 7.29465 15.9095Z" fill="#43506E"/>
</svg>
