<svg width="31" height="31" viewBox="0 0 31 31" fill="none" xmlns="http://www.w3.org/2000/svg">
<path d="M16.7833 5.62207H14.662C13.4905 5.62207 12.5408 6.5175 12.5408 7.62207C12.5408 8.88608 11.1884 9.68971 10.0782 9.08537L9.96544 9.02399C8.95088 8.4717 7.65356 8.79945 7.0678 9.75604L6.00719 11.4881C5.42143 12.4447 5.76905 13.6679 6.78361 14.2201C7.89433 14.8248 7.89432 16.4194 6.78361 17.024C5.76905 17.5763 5.42143 18.7995 6.00719 19.7561L7.0678 21.4881C7.65356 22.4447 8.95088 22.7724 9.96544 22.2202L10.0782 22.1588C11.1884 21.5544 12.5408 22.3581 12.5408 23.6221C12.5408 24.7266 13.4905 25.6221 14.662 25.6221H16.7833C17.9548 25.6221 18.9045 24.7266 18.9045 23.6221C18.9045 22.358 20.2569 21.5544 21.3671 22.1588L21.4799 22.2201C22.4944 22.7724 23.7917 22.4447 24.3775 21.4881L25.4381 19.756C26.0239 18.7995 25.6762 17.5763 24.6617 17.024C23.551 16.4194 23.551 14.8248 24.6617 14.2202C25.6762 13.6679 26.0239 12.4447 25.4381 11.4881L24.3775 9.75605C23.7917 8.79947 22.4944 8.47172 21.4799 9.024L21.3671 9.08538C20.2569 9.68972 18.9045 8.88609 18.9045 7.62207C18.9045 6.5175 17.9548 5.62207 16.7833 5.62207Z" stroke="#43506E" stroke-width="1.5" stroke-linejoin="round"/>
<circle cx="15.7227" cy="15.6221" r="3.75" stroke="#43506E" stroke-width="1.5"/>
</svg>
