<svg width="14" height="11" viewBox="0 0 14 11" fill="none" xmlns="http://www.w3.org/2000/svg">
<path d="M6.96289 0.0688477C8.30728 0.0688477 9.58191 0.535272 10.6917 1.39879C11.8014 2.256 12.7463 3.5103 13.4248 5.07976C13.4756 5.19951 13.4756 5.33818 13.4248 5.45164C12.0678 8.59054 9.65167 10.4688 6.96289 10.4688H6.95655C4.27411 10.4688 1.85801 8.59054 0.500939 5.45164C0.450208 5.33818 0.450208 5.19951 0.500939 5.07976C1.85801 1.94085 4.27411 0.0688477 6.95655 0.0688477H6.96289ZM6.96289 2.74764C5.56143 2.74764 4.42631 3.87588 4.42631 5.26885C4.42631 6.65551 5.56143 7.78376 6.96289 7.78376C8.35801 7.78376 9.49313 6.65551 9.49313 5.26885C9.49313 3.87588 8.35801 2.74764 6.96289 2.74764ZM6.96365 3.6917C7.83243 3.6917 8.54268 4.39764 8.54268 5.26746C8.54268 6.13098 7.83243 6.83692 6.96365 6.83692C6.08853 6.83692 5.37829 6.13098 5.37829 5.26746C5.37829 5.16031 5.39097 5.05946 5.40999 4.95861H5.4417C6.1456 4.95861 6.71633 4.40395 6.7417 3.71061C6.81146 3.69801 6.88755 3.6917 6.96365 3.6917Z" fill="#2B425C"/>
</svg>
