<svg width="31" height="31" viewBox="0 0 31 31" fill="none" xmlns="http://www.w3.org/2000/svg">
<path d="M10.7227 9.37207H15.7227M10.7227 14.3721H20.7227M10.7227 19.3721H20.7227M6.97266 3.12207H24.4727C25.8534 3.12207 26.9727 4.24136 26.9727 5.62207V24.565C26.9727 26.2965 25.255 27.5037 23.6259 26.9172L21.6737 26.2144C21.0636 25.9948 20.3922 26.0208 19.8009 26.2868L16.7486 27.6604C16.0961 27.954 15.3492 27.954 14.6967 27.6604L11.6444 26.2868C11.0531 26.0208 10.3817 25.9948 9.77166 26.2144L7.81946 26.9172C6.1903 27.5037 4.47266 26.2965 4.47266 24.565V5.62207C4.47266 4.24136 5.59194 3.12207 6.97266 3.12207Z" stroke="#43506E" stroke-width="1.5" stroke-linecap="round"/>
</svg>
