<svg width="31" height="31" viewBox="0 0 31 31" fill="none" xmlns="http://www.w3.org/2000/svg">
<ellipse cx="15.7227" cy="21.2471" rx="7.5" ry="3.125" stroke="#43506E" stroke-width="1.5" stroke-linejoin="round"/>
<circle cx="15.7227" cy="10.6221" r="3.75" stroke="#43506E" stroke-width="1.5" stroke-linejoin="round"/>
<path fill-rule="evenodd" clip-rule="evenodd" d="M8.41721 17.4062C7.03062 17.4961 5.7675 17.7611 4.7747 18.1583C4.15689 18.4054 3.60659 18.7184 3.19848 19.1044C2.78879 19.4918 2.47266 20.0045 2.47266 20.6224C2.47266 21.2402 2.78879 21.753 3.19848 22.1404C3.60659 22.5264 4.15689 22.8394 4.7747 23.0865C5.32549 23.3068 5.95947 23.4865 6.65159 23.6182C6.19997 23.0723 5.89947 22.479 5.78033 21.855C5.62282 21.8042 5.47308 21.7503 5.33178 21.6938C4.81856 21.4885 4.45357 21.2628 4.22914 21.0506C4.0063 20.8398 3.97266 20.6949 3.97266 20.6224C3.97266 20.5499 4.0063 20.4049 4.22914 20.1942C4.45357 19.982 4.81856 19.7563 5.33178 19.551C5.6465 19.4251 6.00306 19.3124 6.39415 19.2167C6.85994 18.5402 7.55165 17.9269 8.41721 17.4062Z" fill="#43506E"/>
<path fill-rule="evenodd" clip-rule="evenodd" d="M25.6652 21.855C25.5461 22.479 25.2456 23.0723 24.7939 23.6182C25.4861 23.4865 26.12 23.3068 26.6708 23.0865C27.2886 22.8394 27.8389 22.5264 28.247 22.1404C28.6567 21.753 28.9729 21.2402 28.9729 20.6224C28.9729 20.0045 28.6567 19.4918 28.247 19.1044C27.8389 18.7184 27.2886 18.4054 26.6708 18.1583C25.678 17.7611 24.4149 17.4961 23.0283 17.4062C23.8939 17.9269 24.5856 18.5402 25.0514 19.2167C25.4425 19.3124 25.799 19.4251 26.1137 19.551C26.627 19.7563 26.992 19.982 27.2164 20.1942C27.4392 20.4049 27.4729 20.5499 27.4729 20.6224C27.4729 20.6949 27.4392 20.8398 27.2164 21.0506C26.992 21.2628 26.627 21.4885 26.1137 21.6938C25.9724 21.7503 25.8227 21.8042 25.6652 21.855Z" fill="#43506E"/>
<path fill-rule="evenodd" clip-rule="evenodd" d="M21.2817 13.4806C21.0485 13.9331 20.7617 14.3535 20.4297 14.7334C20.8886 14.9813 21.414 15.1221 21.9722 15.1221C23.7671 15.1221 25.2222 13.667 25.2222 11.8721C25.2222 10.0771 23.7671 8.62207 21.9722 8.62207C21.8637 8.62207 21.7564 8.62739 21.6506 8.63778C21.8086 9.10998 21.9117 9.6073 21.9525 10.1222C21.9591 10.1221 21.9656 10.1221 21.9722 10.1221C22.9387 10.1221 23.7222 10.9056 23.7222 11.8721C23.7222 12.8386 22.9387 13.6221 21.9722 13.6221C21.727 13.6221 21.4935 13.5716 21.2817 13.4806Z" fill="#43506E"/>
<path fill-rule="evenodd" clip-rule="evenodd" d="M9.79422 8.63778C9.68844 8.62739 9.58117 8.62207 9.47266 8.62207C7.67773 8.62207 6.22266 10.0771 6.22266 11.8721C6.22266 13.667 7.67773 15.1221 9.47266 15.1221C10.0309 15.1221 10.5562 14.9813 11.0152 14.7334C10.6831 14.3535 10.3963 13.9331 10.1632 13.4806C9.95132 13.5716 9.71788 13.6221 9.47266 13.6221C8.50616 13.6221 7.72266 12.8386 7.72266 11.8721C7.72266 10.9056 8.50616 10.1221 9.47266 10.1221C9.47923 10.1221 9.4858 10.1221 9.49236 10.1222C9.5331 9.6073 9.63625 9.10998 9.79422 8.63778Z" fill="#43506E"/>
</svg>
