<svg width="25" height="26" viewBox="0 0 25 26" fill="none" xmlns="http://www.w3.org/2000/svg">
<path opacity="0.4" d="M2.08301 7.98942C2.08301 5.68823 3.94849 3.82275 6.24967 3.82275H18.7497C21.0509 3.82275 22.9163 5.68823 22.9163 7.98942V18.4061C22.9163 20.7073 21.0509 22.5728 18.7497 22.5728H6.24967C3.94849 22.5728 2.08301 20.7073 2.08301 18.4061V7.98942Z" fill="#43506E"/>
<path fill-rule="evenodd" clip-rule="evenodd" d="M5.60004 8.59785C5.83938 8.23884 6.32444 8.14183 6.68344 8.38117L10.6222 11.007C11.7594 11.7651 13.2408 11.7651 14.378 11.007L18.3167 8.38117C18.6757 8.14183 19.1608 8.23884 19.4001 8.59785C19.6395 8.95686 19.5424 9.44191 19.1834 9.68125L15.2447 12.3071C13.5827 13.4151 11.4175 13.4151 9.75547 12.3071L5.81672 9.68125C5.45772 9.44191 5.36071 8.95686 5.60004 8.59785Z" fill="#43506E"/>
</svg>
