<svg width="31" height="31" viewBox="0 0 31 31" fill="none" xmlns="http://www.w3.org/2000/svg">
<path d="M14.5623 5.70893C11.0518 6.23892 8.24433 9.13824 7.8222 12.8646L7.3911 16.6702C7.28399 17.6158 6.90074 18.5057 6.29202 19.2221C5.00026 20.7426 6.04867 23.1221 8.01033 23.1221H23.435C25.3966 23.1221 26.4451 20.7426 25.1533 19.2221C24.5446 18.5057 24.1613 17.6158 24.0542 16.6702L23.7693 14.1555M19.4727 25.6221C18.9268 27.0786 17.4539 28.1221 15.7227 28.1221C13.9914 28.1221 12.5185 27.0786 11.9727 25.6221M25.7227 6.87207C25.7227 8.94314 24.0437 10.6221 21.9727 10.6221C19.9016 10.6221 18.2227 8.94314 18.2227 6.87207C18.2227 4.801 19.9016 3.12207 21.9727 3.12207C24.0437 3.12207 25.7227 4.801 25.7227 6.87207Z" stroke="#43506E" stroke-width="1.5" stroke-linecap="round"/>
</svg>
