<svg width="31" height="31" viewBox="0 0 31 31" fill="none" xmlns="http://www.w3.org/2000/svg">
<path fill-rule="evenodd" clip-rule="evenodd" d="M21.1402 4.05957H10.3039C6.52766 4.05957 4.16016 6.73332 4.16016 10.5171V20.7271C4.16016 24.5108 6.51641 27.1846 10.3039 27.1846H21.1389C24.9277 27.1846 27.2852 24.5108 27.2852 20.7271V10.5171C27.2852 6.73332 24.9277 4.05957 21.1402 4.05957Z" stroke="#43506E" stroke-width="1.5" stroke-linecap="round" stroke-linejoin="round"/>
<path fill-rule="evenodd" clip-rule="evenodd" d="M14.0841 15.6216C14.0841 16.9004 13.0479 17.9366 11.7691 17.9366C10.4904 17.9366 9.4541 16.9004 9.4541 15.6216C9.4541 14.3429 10.4904 13.3066 11.7691 13.3066H11.7729C13.0491 13.3079 14.0841 14.3441 14.0841 15.6216Z" stroke="#43506E" stroke-width="1.5" stroke-linecap="round" stroke-linejoin="round"/>
<path d="M14.0879 15.6221H21.9854V17.9371" stroke="#43506E" stroke-width="1.5" stroke-linecap="round" stroke-linejoin="round"/>
<path d="M18.4502 17.9371V15.6221" stroke="#43506E" stroke-width="1.5" stroke-linecap="round" stroke-linejoin="round"/>
</svg>
