<svg width="15" height="15" viewBox="0 0 15 15" fill="none" xmlns="http://www.w3.org/2000/svg">
<path d="M3.72266 12.9167C3.44651 12.9167 3.22266 13.1405 3.22266 13.4167C3.22266 13.6928 3.44651 13.9167 3.72266 13.9167V12.9167ZM10.7227 13.9167C10.9988 13.9167 11.2227 13.6928 11.2227 13.4167C11.2227 13.1405 10.9988 12.9167 10.7227 12.9167V13.9167ZM11.0977 6.125C11.0977 7.099 10.4725 8.37251 9.59793 9.43767C9.16908 9.96 8.70199 10.4049 8.2637 10.7146C7.80985 11.0353 7.44976 11.1667 7.22266 11.1667V12.1667C7.76118 12.1667 8.33078 11.8917 8.84079 11.5313C9.36637 11.1599 9.89732 10.6489 10.3708 10.0722C11.301 8.93928 12.0977 7.44196 12.0977 6.125H11.0977ZM7.22266 11.1667C7.00566 11.1667 6.65007 11.0306 6.19326 10.6876C5.75411 10.358 5.28562 9.88531 4.85505 9.33382C3.97726 8.20952 3.34766 6.87709 3.34766 5.89815H2.34766C2.34766 7.21017 3.13992 8.762 4.06683 9.94921C4.5386 10.5535 5.06815 11.0934 5.59287 11.4874C6.09993 11.868 6.67403 12.1667 7.22266 12.1667V11.1667ZM3.34766 5.89815C3.34766 3.82039 5.1972 2.25 7.22266 2.25V1.25C4.73778 1.25 2.34766 3.17961 2.34766 5.89815H3.34766ZM7.22266 2.25C9.2297 2.25 11.0977 3.80336 11.0977 6.125H12.0977C12.0977 3.19664 9.72594 1.25 7.22266 1.25V2.25ZM8.47266 5.83333C8.47266 6.52369 7.91301 7.08333 7.22266 7.08333V8.08333C8.4653 8.08333 9.47266 7.07597 9.47266 5.83333H8.47266ZM7.22266 7.08333C6.5323 7.08333 5.97266 6.52369 5.97266 5.83333H4.97266C4.97266 7.07597 5.98002 8.08333 7.22266 8.08333V7.08333ZM5.97266 5.83333C5.97266 5.14298 6.5323 4.58333 7.22266 4.58333V3.58333C5.98002 3.58333 4.97266 4.59069 4.97266 5.83333H5.97266ZM7.22266 4.58333C7.91301 4.58333 8.47266 5.14298 8.47266 5.83333H9.47266C9.47266 4.59069 8.4653 3.58333 7.22266 3.58333V4.58333ZM3.72266 13.9167H10.7227V12.9167H3.72266V13.9167Z" fill="#43506E" fill-opacity="0.75"/>
</svg>
