<svg width="25" height="25" viewBox="0 0 25 25" fill="none" xmlns="http://www.w3.org/2000/svg">
<path fill-rule="evenodd" clip-rule="evenodd" d="M12.8447 17.709C14.8447 17.709 18.8447 13.0227 18.8447 9.70898C18.8447 6.39528 16.1584 3.70898 12.8447 3.70898C9.53102 3.70898 6.84473 6.39528 6.84473 9.70898C6.84473 13.0227 10.8447 17.709 12.8447 17.709ZM12.8447 11.709C13.9493 11.709 14.8447 10.8136 14.8447 9.70898C14.8447 8.60441 13.9493 7.70898 12.8447 7.70898C11.7402 7.70898 10.8447 8.60441 10.8447 9.70898C10.8447 10.8136 11.7402 11.709 12.8447 11.709Z" fill="#43506E"/>
<path opacity="0.4" fill-rule="evenodd" clip-rule="evenodd" d="M7.85655 15.8027C6.99873 15.9921 6.21835 16.4608 5.64568 17.148L4.57871 18.4284C3.49316 19.7311 4.41948 21.7088 6.11515 21.7088H19.575C21.2707 21.7088 22.197 19.7311 21.1114 18.4284L20.0445 17.148C19.4718 16.4608 18.6914 15.9921 17.8336 15.8027C17.8134 15.8286 17.7933 15.8544 17.7731 15.88C17.0853 16.7525 16.3069 17.5406 15.5251 18.1257C14.8023 18.6666 13.8473 19.2088 12.8451 19.2088C11.8429 19.2088 10.8878 18.6666 10.1651 18.1257C9.38323 17.5406 8.60481 16.7525 7.91704 15.88C7.89686 15.8544 7.87669 15.8286 7.85655 15.8027Z" fill="#43506E"/>
</svg>
