<svg width="51" height="51" viewBox="0 0 51 51" fill="none" xmlns="http://www.w3.org/2000/svg">
<rect x="0.166016" y="0.272949" width="50" height="50" rx="25" fill="#FFD1BD" fill-opacity="0.3"/>
<path d="M22.166 17.2729L23.9188 18.6752C24.3367 19.0095 24.9437 18.9556 25.2961 18.5528L28.166 15.2729" stroke="#4B291B" stroke-width="1.5" stroke-linecap="round" stroke-linejoin="round"/>
<path d="M17.166 23.2729V30.0369C17.166 30.7944 17.594 31.487 18.2716 31.8257L24.2716 34.8257C24.8346 35.1073 25.4974 35.1073 26.0604 34.8257L32.0604 31.8257C32.738 31.487 33.166 30.7944 33.166 30.0369V23.2729" stroke="#4B291B" stroke-width="1.5"/>
<path d="M31.166 18.2729L33.166 19.2729L25.166 23.2729L17.166 19.2729L19.166 18.2729" stroke="#4B291B" stroke-width="1.5" stroke-linecap="round" stroke-linejoin="round"/>
<path d="M33.166 19.2729L25.166 23.2729L27.166 26.2729L35.166 22.2729L33.166 19.2729Z" stroke="#4B291B" stroke-width="1.5" stroke-linecap="round" stroke-linejoin="round"/>
<path d="M17.166 19.2729L25.166 23.2729L23.166 26.2729L15.166 22.2729L17.166 19.2729Z" stroke="#4B291B" stroke-width="1.5" stroke-linecap="round" stroke-linejoin="round"/>
</svg>
