<svg width="25" height="25" viewBox="0 0 25 25" fill="none" xmlns="http://www.w3.org/2000/svg">
<path d="M20.6006 17.709C20.6006 19.3658 19.2574 20.709 17.6006 20.709C15.9437 20.709 14.6006 19.3658 14.6006 17.709C14.6006 16.0521 15.9437 14.709 17.6006 14.709C19.2574 14.709 20.6006 16.0521 20.6006 17.709Z" fill="#43506E"/>
<g opacity="0.4">
<path d="M10.6006 7.70898C10.6006 9.36584 9.25744 10.709 7.60059 10.709C5.94373 10.709 4.60059 9.36584 4.60059 7.70898C4.60059 6.05213 5.94373 4.70898 7.60059 4.70898C9.25744 4.70898 10.6006 6.05213 10.6006 7.70898Z" fill="#43506E"/>
<path d="M14.6006 6.70898C14.6006 5.60441 15.496 4.70898 16.6006 4.70898H18.6006C19.7052 4.70898 20.6006 5.60441 20.6006 6.70898V8.70898C20.6006 9.81355 19.7052 10.709 18.6006 10.709H16.6006C15.496 10.709 14.6006 9.81355 14.6006 8.70898V6.70898Z" fill="#43506E"/>
<path d="M4.60059 16.709C4.60059 15.6044 5.49602 14.709 6.60059 14.709H8.60059C9.70516 14.709 10.6006 15.6044 10.6006 16.709V18.709C10.6006 19.8136 9.70516 20.709 8.60059 20.709H6.60059C5.49602 20.709 4.60059 19.8136 4.60059 18.709V16.709Z" fill="#43506E"/>
</g>
</svg>
