<svg width="31" height="31" viewBox="0 0 31 31" fill="none" xmlns="http://www.w3.org/2000/svg">
<path d="M23.9212 25.0581C22.6794 21.7368 19.4772 19.3721 15.7227 19.3721C11.9681 19.3721 8.7659 21.7368 7.52411 25.0581M23.9212 25.0581C26.5566 22.7664 28.2227 19.3888 28.2227 15.6221C28.2227 8.71851 22.6262 3.12207 15.7227 3.12207C8.8191 3.12207 3.22266 8.71851 3.22266 15.6221C3.22266 19.3888 4.88872 22.7664 7.52411 25.0581M23.9212 25.0581C21.7265 26.9666 18.8595 28.1221 15.7227 28.1221C12.5858 28.1221 9.71883 26.9666 7.52411 25.0581" stroke="#43506E" stroke-width="1.5" stroke-linejoin="round"/>
<circle cx="3.75" cy="3.75" r="3.75" transform="matrix(1 0 0 -1 11.9727 15.6221)" stroke="#43506E" stroke-width="1.5" stroke-linejoin="round"/>
</svg>
