<svg width="31" height="31" viewBox="0 0 31 31" fill="none" xmlns="http://www.w3.org/2000/svg">
<path d="M7.92394 9.60165L7.86316 8.85412L7.92394 9.60165ZM10.5056 8.57432L10.9729 9.16098L10.5056 8.57432ZM22.2882 20.3569L22.8749 20.8242L22.2882 20.3569ZM21.2609 22.9386L22.0084 22.9994L21.2609 22.9386ZM6.38129 13.5743L6.91162 13.044L6.38129 13.5743ZM17.2882 24.4812L16.7578 25.0116L17.2882 24.4812ZM24.6743 17.3611L24.0877 16.8939L24.6743 17.3611ZM13.5014 6.18821L13.0341 5.60155L13.0341 5.60155L13.5014 6.18821ZM15.6808 26.7816C16.0578 26.6101 16.2245 26.1654 16.053 25.7884C15.8815 25.4113 15.4368 25.2447 15.0598 25.4161L15.6808 26.7816ZM10.7497 21.106C10.9212 20.729 10.7545 20.2843 10.3775 20.1128C10.0004 19.9414 9.55573 20.108 9.38425 20.4851L10.7497 21.106ZM17.8185 23.9509L6.91162 13.044L5.85096 14.1047L16.7578 25.0116L17.8185 23.9509ZM24.0877 16.8939L21.7015 19.8897L22.8749 20.8242L25.261 17.8284L24.0877 16.8939ZM10.9729 9.16098L13.9687 6.77486L13.0341 5.60155L10.0383 7.98767L10.9729 9.16098ZM7.98473 10.3492C9.07216 10.2608 10.1135 9.84547 10.9729 9.16098L10.0383 7.98767C9.40894 8.48898 8.64982 8.79015 7.86316 8.85412L7.98473 10.3492ZM21.7015 19.8897C21.0171 20.749 20.6018 21.7904 20.5133 22.8778L22.0084 22.9994C22.0724 22.2127 22.3735 21.4536 22.8749 20.8242L21.7015 19.8897ZM6.91162 13.044C6.00715 12.1395 6.58981 10.4626 7.98473 10.3492L7.86316 8.85412C5.28105 9.06408 3.98124 12.235 5.85096 14.1047L6.91162 13.044ZM16.7578 25.0116C18.6276 26.8813 21.7984 25.5815 22.0084 22.9994L20.5133 22.8778C20.3999 24.2727 18.723 24.8554 17.8185 23.9509L16.7578 25.0116ZM25.261 17.8284C28.0767 14.2933 27.8756 9.25921 24.7394 6.12309L23.6788 7.18375C26.2509 9.75585 26.4498 13.9282 24.0877 16.8939L25.261 17.8284ZM13.9687 6.77486C16.9343 4.41276 21.1067 4.61165 23.6788 7.18375L24.7394 6.12309C21.6033 2.98697 16.5692 2.78587 13.0341 5.60155L13.9687 6.77486ZM15.0598 25.4161C13.9395 25.9256 12.4929 25.6964 11.4812 24.6846L10.4205 25.7453C11.8572 27.182 13.9693 27.5599 15.6808 26.7816L15.0598 25.4161ZM11.4812 24.6846C10.4694 23.6729 10.2402 22.2263 10.7497 21.106L9.38425 20.4851C8.6059 22.1966 8.98387 24.3086 10.4205 25.7453L11.4812 24.6846Z" fill="#43506E"/>
</svg>
