<svg width="15" height="15" viewBox="0 0 15 15" fill="none" xmlns="http://www.w3.org/2000/svg">
<g clip-path="url(#clip0_213_1726)">
<path d="M11.889 12.7894V8.12272C11.889 7.8133 11.7661 7.51656 11.5473 7.29776C11.3285 7.07897 11.0317 6.95605 10.7223 6.95605H3.72233C3.41291 6.95605 3.11617 7.07897 2.89737 7.29776C2.67858 7.51656 2.55566 7.8133 2.55566 8.12272V12.7894" stroke="#43506E" stroke-opacity="0.75" stroke-linecap="round" stroke-linejoin="round"/>
<path d="M2.55566 9.8724C2.55566 9.8724 2.84733 9.28906 3.72233 9.28906C4.59733 9.28906 5.18066 10.4557 6.05566 10.4557C6.93066 10.4557 7.514 9.28906 8.389 9.28906C9.264 9.28906 9.84733 10.4557 10.7223 10.4557C11.5973 10.4557 11.889 9.8724 11.889 9.8724" stroke="#43506E" stroke-opacity="0.75" stroke-linecap="round" stroke-linejoin="round"/>
<path d="M1.38965 12.7891H13.0563" stroke="#43506E" stroke-opacity="0.75" stroke-linecap="round" stroke-linejoin="round"/>
<path d="M4.30566 5.20605V6.37272" stroke="#43506E" stroke-opacity="0.75" stroke-linecap="round" stroke-linejoin="round"/>
<path d="M7.22266 5.20605V6.37272" stroke="#43506E" stroke-opacity="0.75" stroke-linecap="round" stroke-linejoin="round"/>
<path d="M10.1396 5.20605V6.37272" stroke="#43506E" stroke-opacity="0.75" stroke-linecap="round" stroke-linejoin="round"/>
<path d="M4.30566 2.87207H4.3115" stroke="#43506E" stroke-opacity="0.75" stroke-linecap="round" stroke-linejoin="round"/>
<path d="M7.22266 2.87207H7.22849" stroke="#43506E" stroke-opacity="0.75" stroke-linecap="round" stroke-linejoin="round"/>
<path d="M10.1396 2.87207H10.1455" stroke="#43506E" stroke-opacity="0.75" stroke-linecap="round" stroke-linejoin="round"/>
</g>
<defs>
<clipPath id="clip0_213_1726">
<rect width="14" height="14" fill="white" transform="translate(0.222656 0.539062)"/>
</clipPath>
</defs>
</svg>
