<svg width="25" height="25" viewBox="0 0 25 25" fill="none" xmlns="http://www.w3.org/2000/svg">
<ellipse cx="12.2227" cy="17.1235" rx="6" ry="2.5" stroke="#43506E" stroke-width="1.5" stroke-linejoin="round"/>
<circle cx="12.2227" cy="8.62354" r="3" stroke="#43506E" stroke-width="1.5" stroke-linejoin="round"/>
<path fill-rule="evenodd" clip-rule="evenodd" d="M6.66813 13.8848C5.42955 13.9363 4.29179 14.1594 3.40858 14.5127C2.90387 14.7146 2.44511 14.9737 2.10025 15.2999C1.75381 15.6275 1.47266 16.0745 1.47266 16.6233C1.47266 17.1721 1.75381 17.6191 2.10025 17.9467C2.44511 18.2728 2.90387 18.532 3.40858 18.7339C3.90837 18.9338 4.48967 19.092 5.12462 19.2011C4.63099 18.6686 4.32118 18.0736 4.24251 17.4428C4.14606 17.4103 4.05369 17.3764 3.96567 17.3411C3.56555 17.1811 3.29208 17.0093 3.13091 16.8569C2.97246 16.707 2.97265 16.6279 2.97266 16.6234L2.97266 16.6233L2.97266 16.6232C2.97265 16.6187 2.97246 16.5396 3.13091 16.3897C3.29208 16.2373 3.56555 16.0655 3.96567 15.9054C4.16862 15.8242 4.39466 15.7499 4.64053 15.6841C5.05422 14.9942 5.75713 14.3793 6.66813 13.8848Z" fill="#43506E"/>
<path fill-rule="evenodd" clip-rule="evenodd" d="M20.203 17.4428C20.1243 18.0736 19.8145 18.6686 19.3208 19.2011C19.9558 19.092 20.5371 18.9338 21.0369 18.7339C21.5416 18.532 22.0004 18.2728 22.3452 17.9467C22.6917 17.6191 22.9728 17.1721 22.9728 16.6233C22.9728 16.0745 22.6917 15.6275 22.3452 15.2999C22.0004 14.9737 21.5416 14.7146 21.0369 14.5127C20.1537 14.1594 19.0159 13.9363 17.7773 13.8848C18.6883 14.3793 19.3912 14.9942 19.8049 15.6841C20.0508 15.7499 20.2768 15.8242 20.4798 15.9054C20.8799 16.0655 21.1534 16.2373 21.3146 16.3897C21.473 16.5396 21.4728 16.6187 21.4728 16.6232V16.6233V16.6234C21.4728 16.6279 21.473 16.707 21.3146 16.8569C21.1534 17.0093 20.8799 17.1811 20.4798 17.3411C20.3918 17.3764 20.2994 17.4103 20.203 17.4428Z" fill="#43506E"/>
<path fill-rule="evenodd" clip-rule="evenodd" d="M16.7364 10.7757C16.5165 11.2361 16.2282 11.6576 15.8848 12.0271C16.2806 12.2478 16.7366 12.3735 17.222 12.3735C18.7408 12.3735 19.972 11.1423 19.972 9.62354C19.972 8.10475 18.7408 6.87354 17.222 6.87354C17.1177 6.87354 17.0148 6.87934 16.9135 6.89064C17.0856 7.35625 17.1903 7.8545 17.2158 8.37355C17.2179 8.37354 17.2199 8.37354 17.222 8.37354C17.9123 8.37354 18.472 8.93318 18.472 9.62354C18.472 10.3139 17.9123 10.8735 17.222 10.8735C17.0498 10.8735 16.8857 10.8387 16.7364 10.7757Z" fill="#43506E"/>
<path fill-rule="evenodd" clip-rule="evenodd" d="M7.5311 6.89064C7.42985 6.87934 7.32693 6.87354 7.22266 6.87354C5.70387 6.87354 4.47266 8.10475 4.47266 9.62354C4.47266 11.1423 5.70387 12.3735 7.22266 12.3735C7.70803 12.3735 8.16404 12.2478 8.55987 12.0271C8.2164 11.6576 7.92815 11.2361 7.70826 10.7757C7.55897 10.8387 7.39488 10.8735 7.22266 10.8735C6.5323 10.8735 5.97266 10.3139 5.97266 9.62354C5.97266 8.93318 6.5323 8.37354 7.22266 8.37354C7.2247 8.37354 7.22675 8.37354 7.2288 8.37355C7.25435 7.8545 7.35906 7.35625 7.5311 6.89064Z" fill="#43506E"/>
</svg>
