<svg width="31" height="31" viewBox="0 0 31 31" fill="none" xmlns="http://www.w3.org/2000/svg">
<path d="M26.9953 19.1666L26.7499 19.8753H26.7499L26.9953 19.1666ZM26.9953 12.0775L27.2407 12.7863H27.2407L26.9953 12.0775ZM4.45002 19.1666L4.6954 19.8753H4.6954L4.45002 19.1666ZM4.45002 12.0775L4.20465 12.7863H4.20465L4.45002 12.0775ZM20.003 12.4024C20.2959 12.1095 20.2959 11.6346 20.003 11.3417C19.7101 11.0488 19.2352 11.0488 18.9423 11.3417L20.003 12.4024ZM11.4423 18.8417C11.1494 19.1346 11.1494 19.6095 11.4423 19.9024C11.7352 20.1953 12.2101 20.1953 12.503 19.9024L11.4423 18.8417ZM8.22266 26.1221C5.87545 26.1221 3.97266 24.2193 3.97266 21.8721H2.47266C2.47266 25.0477 5.04702 27.6221 8.22266 27.6221V26.1221ZM27.4727 21.8721C27.4727 24.2193 25.5699 26.1221 23.2227 26.1221V27.6221C26.3983 27.6221 28.9727 25.0477 28.9727 21.8721H27.4727ZM23.2227 5.12207C25.5699 5.12207 27.4727 7.02486 27.4727 9.37207H28.9727C28.9727 6.19643 26.3983 3.62207 23.2227 3.62207V5.12207ZM8.22266 3.62207C5.04702 3.62207 2.47266 6.19643 2.47266 9.37207H3.97266C3.97266 7.02486 5.87545 5.12207 8.22266 5.12207V3.62207ZM27.2407 18.4579C26.0651 18.0509 25.2227 16.9339 25.2227 15.6221H23.7227C23.7227 17.5927 24.9889 19.2656 26.7499 19.8753L27.2407 18.4579ZM25.2227 15.6221C25.2227 14.3103 26.0651 13.1933 27.2407 12.7863L26.7499 11.3688C24.9889 11.9785 23.7227 13.6514 23.7227 15.6221H25.2227ZM6.22266 15.6221C6.22266 16.9339 5.38024 18.0509 4.20465 18.4579L4.6954 19.8753C6.4564 19.2656 7.72266 17.5927 7.72266 15.6221H6.22266ZM4.20465 12.7863C5.38024 13.1933 6.22266 14.3103 6.22266 15.6221H7.72266C7.72266 13.6514 6.45641 11.9785 4.6954 11.3688L4.20465 12.7863ZM28.9727 10.6221V9.37207H27.4727V10.6221H28.9727ZM27.4727 20.6221V21.8721H28.9727V20.6221H27.4727ZM2.47266 20.6221V21.8721H3.97266V20.6221H2.47266ZM3.97266 10.6221V9.37207H2.47266V10.6221H3.97266ZM23.2227 26.1221H8.22266V27.6221H23.2227V26.1221ZM23.2227 3.62207H8.22266V5.12207H23.2227V3.62207ZM4.20465 18.4579C3.3955 18.738 2.47266 19.4815 2.47266 20.6221H3.97266C3.97266 20.3819 4.19982 20.0469 4.6954 19.8753L4.20465 18.4579ZM27.2407 12.7863C28.0498 12.5061 28.9727 11.7626 28.9727 10.6221H27.4727C27.4727 10.8623 27.2455 11.1972 26.7499 11.3688L27.2407 12.7863ZM4.6954 11.3688C4.19982 11.1972 3.97266 10.8623 3.97266 10.6221H2.47266C2.47266 11.7626 3.3955 12.5061 4.20465 12.7863L4.6954 11.3688ZM26.7499 19.8753C27.2455 20.0469 27.4727 20.3819 27.4727 20.6221H28.9727C28.9727 19.4815 28.0498 18.738 27.2407 18.4579L26.7499 19.8753ZM12.4727 11.8721C12.4727 12.1482 12.2488 12.3721 11.9727 12.3721V13.8721C13.0772 13.8721 13.9727 12.9766 13.9727 11.8721H12.4727ZM11.9727 12.3721C11.6965 12.3721 11.4727 12.1482 11.4727 11.8721H9.97266C9.97266 12.9766 10.8681 13.8721 11.9727 13.8721V12.3721ZM11.4727 11.8721C11.4727 11.5959 11.6965 11.3721 11.9727 11.3721V9.87207C10.8681 9.87207 9.97266 10.7675 9.97266 11.8721H11.4727ZM11.9727 11.3721C12.2488 11.3721 12.4727 11.5959 12.4727 11.8721H13.9727C13.9727 10.7675 13.0772 9.87207 11.9727 9.87207V11.3721ZM19.9727 19.3721C19.9727 19.6482 19.7488 19.8721 19.4727 19.8721V21.3721C20.5772 21.3721 21.4727 20.4766 21.4727 19.3721H19.9727ZM19.4727 19.8721C19.1965 19.8721 18.9727 19.6482 18.9727 19.3721H17.4727C17.4727 20.4766 18.3681 21.3721 19.4727 21.3721V19.8721ZM18.9727 19.3721C18.9727 19.0959 19.1965 18.8721 19.4727 18.8721V17.3721C18.3681 17.3721 17.4727 18.2675 17.4727 19.3721H18.9727ZM19.4727 18.8721C19.7488 18.8721 19.9727 19.0959 19.9727 19.3721H21.4727C21.4727 18.2675 20.5772 17.3721 19.4727 17.3721V18.8721ZM18.9423 11.3417L11.4423 18.8417L12.503 19.9024L20.003 12.4024L18.9423 11.3417Z" fill="#43506E"/>
</svg>
