<svg width="51" height="51" viewBox="0 0 51 51" fill="none" xmlns="http://www.w3.org/2000/svg">
<rect x="0.164062" y="0.272949" width="50" height="50" rx="25" fill="#CABDFF" fill-opacity="0.3"/>
<path d="M18.7969 24.3756C19.6136 21.9255 21.9064 20.2729 24.489 20.2729H25.8399C28.4224 20.2729 30.7153 21.9255 31.532 24.3756L32.532 27.3756C33.827 31.2608 30.9352 35.2729 26.8399 35.2729H23.489C19.3936 35.2729 16.5018 31.2608 17.7969 27.3756L18.7969 24.3756Z" stroke="#362016" stroke-width="1.5" stroke-linejoin="round"/>
<path d="M22.1641 31.2729C24.4185 32.5877 25.7419 32.6174 28.1641 31.2729" stroke="#362016" stroke-width="1.5" stroke-linecap="round"/>
<path d="M27.25 20.2729L23.0782 20.2729L21.6771 18.6659C20.3037 17.0906 21.9059 14.7359 23.9111 15.3828L24.8389 15.6821C25.0501 15.7502 25.278 15.7502 25.4892 15.6821L26.417 15.3828C28.4222 14.7359 30.0245 17.0906 28.651 18.6659L27.25 20.2729Z" stroke="#362016" stroke-width="1.5" stroke-linejoin="round"/>
</svg>
