<svg width="200" height="200" viewBox="0 0 362 360" fill="none" xmlns="http://www.w3.org/2000/svg">
<path d="M261.274 249.319C231.484 293.427 152.912 287.841 108.804 258.05C64.6956 228.259 72.5508 159.918 102.342 115.809C132.133 71.7007 194.802 59.1271 238.91 88.9177C261.579 104.229 269.073 134.738 275.378 162.034C281.301 187.673 275.753 227.883 261.274 249.319Z" fill="#99D55F" fill-opacity="0.3"/>
<path opacity="0.45" d="M293.629 218.404C294.982 211.446 295.341 203.375 294.697 194.415C294.082 185.845 292.581 176.826 290.235 167.607C289.096 163.128 287.764 158.649 286.275 154.294C284.788 149.94 283.135 145.684 281.364 141.645C279.577 137.571 277.658 133.691 275.66 130.112C273.631 126.478 271.504 123.127 269.339 120.151C264.61 113.651 259.555 106.76 254.334 100.238C248.487 92.936 243.092 86.9226 237.839 81.854C234.845 78.9651 231.828 76.3215 228.871 73.9966C225.715 71.5155 222.509 69.3038 219.343 67.4228C216.001 65.4373 212.586 63.751 209.193 62.4107C205.634 61.0049 201.98 59.9327 198.334 59.2239C191.026 57.8033 183.534 57.1516 176.067 57.2869C168.805 57.4184 161.485 58.2951 154.309 59.8926C147.274 61.4587 140.317 63.7309 133.63 66.6459C127.014 69.5303 120.616 73.0639 114.615 77.1487C108.617 81.2309 102.977 85.8894 97.8514 90.9947C92.6775 96.1483 87.9924 101.793 83.9262 107.772C79.7831 113.864 76.2472 120.357 73.4167 127.069C70.509 133.964 68.3138 141.169 66.8921 148.483C65.4395 155.956 64.5063 163.735 64.1184 171.603C63.7305 179.473 63.8876 187.441 64.5853 195.286C65.2912 203.224 66.5523 211.052 68.3335 218.554C70.1541 226.222 72.527 233.583 75.3863 240.433C78.3321 247.491 81.8183 254.061 85.7481 259.962C89.8191 266.075 94.4151 271.541 99.4084 276.208C110.093 286.195 122.656 292.647 136.748 295.386C144.149 296.825 152.049 297.655 160.226 297.851C168.316 298.046 176.656 297.621 185.014 296.59C193.394 295.555 201.763 293.914 209.89 291.712C218.145 289.474 226.134 286.661 233.635 283.351C241.341 279.95 248.543 276.017 255.041 271.663C261.771 267.153 267.786 262.161 272.92 256.827C278.265 251.273 282.711 245.286 286.137 239.031C289.719 232.489 292.24 225.549 293.629 218.404ZM296.398 218.942C284.514 280.079 197.346 310.039 136.209 298.155C75.0723 286.271 52.2398 209.082 64.1236 147.945C76.0075 86.8075 137.735 44.5715 198.872 56.4554C230.296 62.5637 252.333 91.9858 271.62 118.491C289.737 143.39 302.173 189.229 296.398 218.942Z" fill="#99D55F"/>
<path opacity="0.18" d="M225.574 301.452C232.389 297.832 239.464 292.611 246.603 285.935C253.426 279.554 260.023 272.116 266.212 263.83C269.218 259.805 272.092 255.616 274.755 251.38C277.418 247.146 279.885 242.839 282.088 238.579C284.31 234.282 286.278 230.006 287.937 225.869C289.622 221.665 291.002 217.572 292.037 213.703C294.294 205.27 296.66 196.295 298.6 187.429C300.773 177.498 302.166 168.827 302.858 160.922C303.253 156.414 303.424 152.053 303.367 147.962C303.306 143.593 302.983 139.367 302.407 135.4C301.798 131.21 300.887 127.163 299.697 123.372C298.449 119.394 296.853 115.564 294.954 111.989C291.155 104.835 286.579 98.0527 281.355 91.8298C276.275 85.7776 270.524 80.186 264.263 75.2103C258.125 70.3325 251.443 66.0032 244.402 62.3427C237.436 58.7209 230.071 55.7282 222.51 53.4477C214.955 51.1686 207.156 49.5863 199.332 48.7449C191.434 47.8955 183.455 47.7956 175.616 48.4478C167.629 49.1124 159.718 50.5643 152.105 52.7633C144.283 55.0223 136.687 58.0958 129.528 61.8983C122.218 65.7809 115.005 70.3115 108.09 75.3642C101.174 80.4171 94.5472 85.9981 88.3936 91.9524C82.1677 97.9767 76.4134 104.396 71.2906 111.031C66.0538 117.815 61.4537 124.856 57.6182 131.958C53.6658 139.277 50.4946 146.721 48.1929 154.083C45.8076 161.711 44.3291 169.342 43.7983 176.762C42.6622 192.646 45.804 207.7 53.1367 221.506C56.9833 228.748 61.685 235.993 67.1113 243.04C72.4784 250.01 78.5399 256.769 85.1274 263.128C91.731 269.502 98.8403 275.453 106.258 280.815C113.794 286.262 121.634 291.091 129.561 295.166C137.707 299.354 145.957 302.753 154.084 305.268C162.502 307.874 170.841 309.546 178.866 310.238C187.225 310.959 195.336 310.622 202.976 309.238C210.969 307.79 218.572 305.171 225.574 301.452ZM226.896 303.942C167.178 335.661 82.3653 282.546 50.6464 222.828C18.9274 163.11 68.4873 91.1269 128.205 59.4079C187.924 27.689 265.726 50.9477 297.445 110.666C313.748 141.361 303.963 180.053 294.761 214.432C286.118 246.727 255.919 288.527 226.896 303.942Z" fill="#99D55F"/>
<circle cx="173.492" cy="181.042" r="61.7088" fill="#99D55F"/>
<path d="M156.027 179.287L167.084 190.338L189.187 168.235" stroke="white" stroke-width="6.98591" stroke-linecap="round" stroke-linejoin="round"/>
</svg>
