<svg width="160" height="39" viewBox="0 0 160 39" fill="none" xmlns="http://www.w3.org/2000/svg">
<path d="M32.5696 32.3165C32.5696 34.8317 30.4704 36.8733 28.8896 36.8733H11.0144L33.4976 0.956543H3.43678V6.90854H4.97918C4.97918 4.39334 6.60478 2.35814 8.19198 2.35814H23.6352L1.01758 38.2686H33.632V32.3165H32.5696Z" fill="#A2A8C9"/>
<path d="M71.5783 35.3639L54.1831 0.95752L38.2407 35.3895C37.9591 36.1447 36.4231 37.0983 34.2471 37.0983V38.2631H42.7335V37.0983C41.1591 37.0983 39.4695 36.3175 39.8791 35.3831L43.7127 27.0695H58.4199L62.5991 35.3639C63.0727 36.2023 60.9543 37.1047 58.7719 37.1047V38.2695H76.4359L76.4423 37.1047C73.7671 37.0983 72.1351 36.2663 71.5783 35.3639ZM44.3527 25.7255L50.7143 11.7607L57.8183 25.7255H44.3527Z" fill="#A2A8C9"/>
<path d="M78.4648 2.39654C81.0504 2.39654 83.188 3.06214 83.188 3.86854C83.188 10.2685 83.1752 35.3245 83.188 35.3245C83.188 36.1821 81.0824 37.1357 78.4904 37.1357L78.484 38.2621H95.7768V37.2125C93.2105 37.2125 91.1305 36.1885 91.1305 35.3309V2.08294H96.1161C100.916 2.08294 104.807 6.07014 104.807 10.5949C104.807 15.1197 100.916 18.7933 96.1096 18.7933H92.6601C92.6601 18.7933 104.346 36.4893 104.366 36.4893C104.826 37.1613 105.057 38.2686 105.057 38.2686H117.658V37.2189C115.233 37.2189 113.966 36.2141 113.262 35.3309L102.01 20.6493C107.412 20.2909 111.591 15.9261 111.591 10.7421C111.591 5.32774 106.938 0.956543 101.198 0.956543H78.4648V2.39654Z" fill="#A2A8C9"/>
<path d="M156.161 35.3629L138.766 0.956543L122.824 35.3885C122.542 36.1437 121.012 37.1357 118.83 37.1357V38.2621H127.316V37.2125C125.742 37.2125 124.059 36.3165 124.462 35.3821L128.296 27.0685H143.003L147.182 35.3629C147.662 36.2013 145.537 37.1421 143.355 37.1421V38.2686H161.019L161.025 37.1805C158.35 37.1805 156.718 36.2653 156.161 35.3629ZM128.929 25.7245L135.291 11.7597L142.395 25.7245H128.929Z" fill="#A2A8C9"/>
</svg>
